<svg width="22" height="21" viewBox="0 0 22 21" fill="none" xmlns="http://www.w3.org/2000/svg">
<g clip-path="url(#clip0_356_2563)">
<path d="M21.6703 10.7418C21.6703 10.0281 21.6124 9.31046 21.4889 8.60828H11.585V12.6516H17.2565C17.0212 13.9557 16.265 15.1093 15.1577 15.8423V18.4659H18.5413C20.5282 16.6371 21.6703 13.9364 21.6703 10.7418Z" fill="#4285F4"/>
<path d="M11.585 21.0007C14.4169 21.0007 16.8051 20.0709 18.5451 18.4659L15.1615 15.8424C14.2201 16.4828 13.0048 16.8455 11.5888 16.8455C8.84953 16.8455 6.52691 14.9974 5.69355 12.5128H2.2019V15.2173C3.98438 18.763 7.61491 21.0007 11.585 21.0007V21.0007Z" fill="#34A853"/>
<path d="M5.68971 12.5127C5.24988 11.2087 5.24988 9.7966 5.68971 8.49254V5.78796H2.20193C0.712678 8.75489 0.712678 12.2504 2.20193 15.2173L5.68971 12.5127V12.5127Z" fill="#FBBC04"/>
<path d="M11.585 4.15595C13.0819 4.1328 14.5287 4.6961 15.6129 5.73009L18.6107 2.73229C16.7125 0.949817 14.1931 -0.0301578 11.585 0.000707583C7.61491 0.000707583 3.98438 2.23844 2.2019 5.78796L5.68969 8.49253C6.51919 6.00402 8.84566 4.15595 11.585 4.15595V4.15595Z" fill="#EA4335"/>
</g>
<defs>
<clipPath id="clip0_356_2563">
<rect width="21" height="21" fill="white" transform="translate(0.875)"/>
</clipPath>
</defs>
</svg>
